<svg width="12" height="12" viewBox="0 0 12 12" fill="none" xmlns="http://www.w3.org/2000/svg">
<path d="M3.59037 1.13944C3.53882 1.08488 3.49852 1.02071 3.47177 0.950575C3.44502 0.880444 3.43234 0.805731 3.43446 0.730701C3.43658 0.655672 3.45346 0.581795 3.48414 0.513288C3.51481 0.444782 3.55868 0.382989 3.61323 0.331435C3.66779 0.279882 3.73196 0.239579 3.80209 0.212827C3.87222 0.186076 3.94694 0.173399 4.02197 0.175522C4.097 0.177644 4.17087 0.194524 4.23938 0.225197C4.30789 0.255871 4.36968 0.299738 4.42123 0.354292L9.27837 5.49715C9.37868 5.60325 9.43457 5.74371 9.43457 5.88972C9.43457 6.03573 9.37868 6.1762 9.27837 6.28229L4.42123 11.4257C4.37002 11.4815 4.30824 11.5265 4.23948 11.5582C4.17072 11.5898 4.09636 11.6075 4.0207 11.6102C3.94505 11.6129 3.86962 11.6005 3.79878 11.5738C3.72795 11.5471 3.66313 11.5066 3.60809 11.4546C3.55305 11.4026 3.50889 11.3402 3.47816 11.2711C3.44744 11.2019 3.43077 11.1273 3.42912 11.0516C3.42747 10.9759 3.44088 10.9006 3.46856 10.8302C3.49624 10.7597 3.53765 10.6955 3.59037 10.6412L8.07723 5.88972L3.59037 1.13944Z" fill="#D0C1D7"/>
</svg>
