<svg width="960" height="290" viewBox="0 0 960 290" fill="none" xmlns="http://www.w3.org/2000/svg">
<g clip-path="url(#clip0_376_1213)">
<g filter="url(#filter0_d_376_1213)">
<ellipse cx="484.389" cy="135.765" rx="451.368" ry="108.765" fill="#131012"/>
<path d="M484.39 28.5C608.949 28.5 721.667 40.6668 803.203 60.3145C843.983 70.1411 876.879 81.82 899.544 94.7324C922.325 107.711 934.257 121.633 934.257 135.766C934.257 149.898 922.325 163.82 899.544 176.799C876.879 189.711 843.983 201.389 803.203 211.216C721.667 230.863 608.949 243.031 484.39 243.031C359.83 243.031 247.111 230.863 165.575 211.216C124.795 201.389 91.8991 189.711 69.2344 176.799C46.4531 163.82 34.5216 149.898 34.5215 135.766C34.5215 121.633 46.4531 107.711 69.2344 94.7324C91.8991 81.82 124.795 70.1411 165.575 60.3145C247.111 40.6668 359.83 28.5 484.39 28.5Z" stroke="url(#paint0_linear_376_1213)" stroke-width="3"/>
</g>
<g filter="url(#filter1_d_376_1213)">
<path d="M476.368 46.6279C600.927 46.628 713.646 58.7948 795.182 78.4424C835.961 88.269 868.858 99.9479 891.522 112.86C914.304 125.839 926.235 139.761 926.235 153.894C926.235 168.026 914.304 181.948 891.522 194.927C868.858 207.839 835.961 219.517 795.182 229.344C713.646 248.991 600.927 261.159 476.368 261.159C351.809 261.159 239.09 248.991 157.554 229.344C116.774 219.517 83.8776 207.839 61.2129 194.927C38.4316 181.948 26.5001 168.026 26.5 153.894C26.5 139.761 38.4316 125.839 61.2129 112.86C83.8776 99.9479 116.774 88.269 157.554 78.4424C239.09 58.7948 351.809 46.6279 476.368 46.6279Z" stroke="url(#paint1_linear_376_1213)" stroke-width="3" shape-rendering="crispEdges"/>
</g>
<g filter="url(#filter2_d_376_1213)">
<path d="M484.39 28.5C608.949 28.5 721.667 40.6668 803.203 60.3145C843.983 70.1411 876.879 81.82 899.544 94.7324C922.325 107.711 934.257 121.633 934.257 135.766C934.257 149.898 922.325 163.82 899.544 176.799C876.879 189.711 843.983 201.389 803.203 211.216C721.667 230.863 608.949 243.031 484.39 243.031C359.83 243.031 247.111 230.863 165.575 211.216C124.795 201.389 91.8991 189.711 69.2344 176.799C46.4531 163.82 34.5216 149.898 34.5215 135.766C34.5215 121.633 46.4531 107.711 69.2344 94.7324C91.8991 81.82 124.795 70.1411 165.575 60.3145C247.111 40.6668 359.83 28.5 484.39 28.5Z" stroke="url(#paint2_linear_376_1213)" stroke-width="3" shape-rendering="crispEdges"/>
</g>
<g filter="url(#filter3_d_376_1213)">
<path d="M482.539 36.6577C607.098 36.6577 719.817 48.8246 801.353 68.4722C842.132 78.2988 875.029 89.9777 897.693 102.89C920.475 115.869 932.406 129.791 932.406 143.923C932.406 158.056 920.475 171.978 897.693 184.957C875.029 197.869 842.132 209.547 801.353 219.374C719.817 239.021 607.098 251.189 482.539 251.189C357.98 251.189 245.261 239.021 163.725 219.374C122.945 209.547 90.0485 197.869 67.3838 184.957C44.6025 171.978 32.671 158.056 32.6709 143.923C32.6709 129.791 44.6025 115.869 67.3838 102.89C90.0485 89.9777 122.945 78.2988 163.725 68.4722C245.261 48.8245 357.98 36.6577 482.539 36.6577Z" stroke="url(#paint3_linear_376_1213)" stroke-width="3" shape-rendering="crispEdges"/>
</g>
<g filter="url(#filter4_d_376_1213)">
<path d="M476.368 46.6279C600.927 46.628 713.646 58.7948 795.182 78.4424C835.961 88.269 868.858 99.9479 891.522 112.86C914.304 125.839 926.235 139.761 926.235 153.894C926.235 168.026 914.304 181.948 891.522 194.927C868.858 207.839 835.961 219.517 795.182 229.344C713.646 248.991 600.927 261.159 476.368 261.159C351.809 261.159 239.09 248.991 157.554 229.344C116.774 219.517 83.8776 207.839 61.2129 194.927C38.4316 181.948 26.5001 168.026 26.5 153.894C26.5 139.761 38.4316 125.839 61.2129 112.86C83.8776 99.9479 116.774 88.269 157.554 78.4424C239.09 58.7948 351.809 46.6279 476.368 46.6279Z" stroke="url(#paint4_linear_376_1213)" stroke-width="3" shape-rendering="crispEdges"/>
</g>
</g>
<defs>
<filter id="filter0_d_376_1213" x="7.36401" y="3.05302" width="954.05" height="268.846" filterUnits="userSpaceOnUse" color-interpolation-filters="sRGB">
<feFlood flood-opacity="0" result="BackgroundImageFix"/>
<feColorMatrix in="SourceAlpha" type="matrix" values="0 0 0 0 0 0 0 0 0 0 0 0 0 0 0 0 0 0 127 0" result="hardAlpha"/>
<feOffset dy="1.7105"/>
<feGaussianBlur stdDeviation="12.8287"/>
<feComposite in2="hardAlpha" operator="out"/>
<feColorMatrix type="matrix" values="0 0 0 0 0.803354 0 0 0 0 0.188645 0 0 0 0 0.188645 0 0 0 1 0"/>
<feBlend mode="normal" in2="BackgroundImageFix" result="effect1_dropShadow_376_1213"/>
<feBlend mode="normal" in="SourceGraphic" in2="effect1_dropShadow_376_1213" result="shape"/>
</filter>
<filter id="filter1_d_376_1213" x="-0.657478" y="21.1809" width="954.05" height="268.846" filterUnits="userSpaceOnUse" color-interpolation-filters="sRGB">
<feFlood flood-opacity="0" result="BackgroundImageFix"/>
<feColorMatrix in="SourceAlpha" type="matrix" values="0 0 0 0 0 0 0 0 0 0 0 0 0 0 0 0 0 0 127 0" result="hardAlpha"/>
<feOffset dy="1.7105"/>
<feGaussianBlur stdDeviation="12.8287"/>
<feComposite in2="hardAlpha" operator="out"/>
<feColorMatrix type="matrix" values="0 0 0 0 0.803354 0 0 0 0 0.188645 0 0 0 0 0.188645 0 0 0 1 0"/>
<feBlend mode="normal" in2="BackgroundImageFix" result="effect1_dropShadow_376_1213"/>
<feBlend mode="normal" in="SourceGraphic" in2="effect1_dropShadow_376_1213" result="shape"/>
</filter>
<filter id="filter2_d_376_1213" x="-4.01081" y="-8.3218" width="976.8" height="291.596" filterUnits="userSpaceOnUse" color-interpolation-filters="sRGB">
<feFlood flood-opacity="0" result="BackgroundImageFix"/>
<feColorMatrix in="SourceAlpha" type="matrix" values="0 0 0 0 0 0 0 0 0 0 0 0 0 0 0 0 0 0 127 0" result="hardAlpha"/>
<feOffset dy="1.7105"/>
<feGaussianBlur stdDeviation="18.5161"/>
<feComposite in2="hardAlpha" operator="out"/>
<feColorMatrix type="matrix" values="0 0 0 0 0.803354 0 0 0 0 0.188645 0 0 0 0 0.188645 0 0 0 1 0"/>
<feBlend mode="normal" in2="BackgroundImageFix" result="effect1_dropShadow_376_1213"/>
<feBlend mode="normal" in="SourceGraphic" in2="effect1_dropShadow_376_1213" result="shape"/>
</filter>
<filter id="filter3_d_376_1213" x="-5.8614" y="-0.164082" width="976.8" height="291.595" filterUnits="userSpaceOnUse" color-interpolation-filters="sRGB">
<feFlood flood-opacity="0" result="BackgroundImageFix"/>
<feColorMatrix in="SourceAlpha" type="matrix" values="0 0 0 0 0 0 0 0 0 0 0 0 0 0 0 0 0 0 127 0" result="hardAlpha"/>
<feOffset dy="1.7105"/>
<feGaussianBlur stdDeviation="18.5161"/>
<feComposite in2="hardAlpha" operator="out"/>
<feColorMatrix type="matrix" values="0 0 0 0 0.803354 0 0 0 0 0.188645 0 0 0 0 0.188645 0 0 0 1 0"/>
<feBlend mode="normal" in2="BackgroundImageFix" result="effect1_dropShadow_376_1213"/>
<feBlend mode="normal" in="SourceGraphic" in2="effect1_dropShadow_376_1213" result="shape"/>
</filter>
<filter id="filter4_d_376_1213" x="-12.0323" y="9.80613" width="976.8" height="291.596" filterUnits="userSpaceOnUse" color-interpolation-filters="sRGB">
<feFlood flood-opacity="0" result="BackgroundImageFix"/>
<feColorMatrix in="SourceAlpha" type="matrix" values="0 0 0 0 0 0 0 0 0 0 0 0 0 0 0 0 0 0 127 0" result="hardAlpha"/>
<feOffset dy="1.7105"/>
<feGaussianBlur stdDeviation="18.5161"/>
<feComposite in2="hardAlpha" operator="out"/>
<feColorMatrix type="matrix" values="0 0 0 0 0.803354 0 0 0 0 0.188645 0 0 0 0 0.188645 0 0 0 1 0"/>
<feBlend mode="normal" in2="BackgroundImageFix" result="effect1_dropShadow_376_1213"/>
<feBlend mode="normal" in="SourceGraphic" in2="effect1_dropShadow_376_1213" result="shape"/>
</filter>
<linearGradient id="paint0_linear_376_1213" x1="-290.951" y1="-2.44237" x2="889.685" y2="309.908" gradientUnits="userSpaceOnUse">
<stop offset="0.00677869" stop-color="#CD3030"/>
<stop offset="0.506086" stop-color="#F4A235"/>
<stop offset="1" stop-color="#39293F"/>
</linearGradient>
<linearGradient id="paint1_linear_376_1213" x1="-0.25134" y1="129.452" x2="898.513" y2="304.194" gradientUnits="userSpaceOnUse">
<stop offset="0.00677869" stop-color="#CD3030"/>
<stop offset="0.506086" stop-color="#F4A235"/>
<stop offset="1" stop-color="#39293F"/>
</linearGradient>
<linearGradient id="paint2_linear_376_1213" x1="7.77015" y1="111.324" x2="1246.93" y2="346.943" gradientUnits="userSpaceOnUse">
<stop offset="0.00677869" stop-color="#CD3030"/>
<stop offset="0.506086" stop-color="#F5D3A5"/>
<stop offset="1" stop-color="#39293F"/>
</linearGradient>
<linearGradient id="paint3_linear_376_1213" x1="5.91956" y1="119.481" x2="1350.51" y2="569.01" gradientUnits="userSpaceOnUse">
<stop offset="0.00677869" stop-color="#CD3030"/>
<stop offset="0.506086" stop-color="#F5D3A5"/>
<stop offset="1" stop-color="#39293F"/>
</linearGradient>
<linearGradient id="paint4_linear_376_1213" x1="-0.251338" y1="129.452" x2="1344.34" y2="578.981" gradientUnits="userSpaceOnUse">
<stop offset="0.00677869" stop-color="#CD3030"/>
<stop offset="0.506086" stop-color="#F5D3A5"/>
<stop offset="1" stop-color="#39293F"/>
</linearGradient>
<clipPath id="clip0_376_1213">
<rect width="960" height="290" fill="white"/>
</clipPath>
</defs>
</svg>
