<svg width="916" height="253" viewBox="0 0 916 253" fill="none" xmlns="http://www.w3.org/2000/svg">
<g filter="url(#filter0_d_374_1204)">
<path d="M875.032 124.322C875.032 119.207 872.597 113.915 867.332 108.47C862.056 103.013 854.123 97.6053 843.645 92.3618C822.698 81.8799 792.192 72.3554 754.249 64.3247C678.413 48.2737 573.506 38.3218 457.532 38.3218C341.559 38.3218 236.652 48.2737 160.815 64.3247C122.873 72.3554 92.3669 81.8799 71.4199 92.3618C60.9414 97.6053 53.0082 103.013 47.7324 108.47C42.4679 113.915 40.0322 119.207 40.0322 124.322C40.0322 129.437 42.4679 134.728 47.7324 140.173C53.0082 145.63 60.9414 151.038 71.4199 156.282C92.3669 166.764 122.873 176.288 160.815 184.319C236.652 200.37 341.559 210.322 457.532 210.322V213.322C225.296 213.322 37.0322 173.475 37.0322 124.322C37.0322 75.1684 225.296 35.3218 457.532 35.3218C689.768 35.3218 878.032 75.1684 878.032 124.322C878.032 173.475 689.768 213.322 457.532 213.322V210.322C573.506 210.322 678.413 200.37 754.249 184.319C792.192 176.288 822.698 166.764 843.645 156.282C854.123 151.038 862.056 145.63 867.332 140.173C872.597 134.728 875.032 129.437 875.032 124.322Z" fill="url(#paint0_linear_374_1204)" shape-rendering="crispEdges"/>
</g>
<g filter="url(#filter1_d_374_1204)">
<path d="M875.032 124.322C875.032 119.207 872.597 113.915 867.332 108.47C862.056 103.013 854.123 97.6053 843.645 92.3618C822.698 81.8799 792.192 72.3554 754.249 64.3247C678.413 48.2737 573.506 38.3218 457.532 38.3218C341.559 38.3218 236.652 48.2737 160.815 64.3247C122.873 72.3554 92.3669 81.8799 71.4199 92.3618C60.9414 97.6053 53.0082 103.013 47.7324 108.47C42.4679 113.915 40.0322 119.207 40.0322 124.322C40.0322 129.437 42.4679 134.728 47.7324 140.173C53.0082 145.63 60.9414 151.038 71.4199 156.282C92.3669 166.764 122.873 176.288 160.815 184.319C236.652 200.37 341.559 210.322 457.532 210.322V213.322C225.296 213.322 37.0322 173.475 37.0322 124.322C37.0322 75.1684 225.296 35.3218 457.532 35.3218C689.768 35.3218 878.032 75.1684 878.032 124.322C878.032 173.475 689.768 213.322 457.532 213.322V210.322C573.506 210.322 678.413 200.37 754.249 184.319C792.192 176.288 822.698 166.764 843.645 156.282C854.123 151.038 862.056 145.63 867.332 140.173C872.597 134.728 875.032 129.437 875.032 124.322Z" fill="url(#paint1_linear_374_1204)" shape-rendering="crispEdges"/>
</g>
<g filter="url(#filter2_d_374_1204)">
<path d="M875.032 124.322C875.032 119.207 872.597 113.915 867.332 108.47C862.056 103.013 854.123 97.6053 843.645 92.3618C822.698 81.8799 792.192 72.3554 754.249 64.3247C678.413 48.2737 573.506 38.3218 457.532 38.3218C341.559 38.3218 236.652 48.2737 160.815 64.3247C122.873 72.3554 92.3669 81.8799 71.4199 92.3618C60.9414 97.6053 53.0082 103.013 47.7324 108.47C42.4679 113.915 40.0322 119.207 40.0322 124.322C40.0322 129.437 42.4679 134.728 47.7324 140.173C53.0082 145.63 60.9414 151.038 71.4199 156.282C92.3669 166.764 122.873 176.288 160.815 184.319C236.652 200.37 341.559 210.322 457.532 210.322V213.322C225.296 213.322 37.0322 173.475 37.0322 124.322C37.0322 75.1684 225.296 35.3218 457.532 35.3218C689.768 35.3218 878.032 75.1684 878.032 124.322C878.032 173.475 689.768 213.322 457.532 213.322V210.322C573.506 210.322 678.413 200.37 754.249 184.319C792.192 176.288 822.698 166.764 843.645 156.282C854.123 151.038 862.056 145.63 867.332 140.173C872.597 134.728 875.032 129.437 875.032 124.322Z" fill="url(#paint2_linear_374_1204)" shape-rendering="crispEdges"/>
</g>
<g filter="url(#filter3_d_374_1204)">
<path d="M875.032 124.322C875.032 119.207 872.597 113.915 867.332 108.47C862.056 103.013 854.123 97.6053 843.645 92.3618C822.698 81.8799 792.192 72.3554 754.249 64.3247C678.413 48.2737 573.506 38.3218 457.532 38.3218C341.559 38.3218 236.652 48.2737 160.815 64.3247C122.873 72.3554 92.3669 81.8799 71.4199 92.3618C60.9414 97.6053 53.0082 103.013 47.7324 108.47C42.4679 113.915 40.0322 119.207 40.0322 124.322C40.0322 129.437 42.4679 134.728 47.7324 140.173C53.0082 145.63 60.9414 151.038 71.4199 156.282C92.3669 166.764 122.873 176.288 160.815 184.319C236.652 200.37 341.559 210.322 457.532 210.322V213.322C225.296 213.322 37.0322 173.475 37.0322 124.322C37.0322 75.1684 225.296 35.3218 457.532 35.3218C689.768 35.3218 878.032 75.1684 878.032 124.322C878.032 173.475 689.768 213.322 457.532 213.322V210.322C573.506 210.322 678.413 200.37 754.249 184.319C792.192 176.288 822.698 166.764 843.645 156.282C854.123 151.038 862.056 145.63 867.332 140.173C872.597 134.728 875.032 129.437 875.032 124.322Z" fill="url(#paint3_linear_374_1204)" shape-rendering="crispEdges"/>
</g>
<g filter="url(#filter4_d_374_1204)">
<path d="M875.032 124.322C875.032 119.207 872.597 113.915 867.332 108.47C862.056 103.013 854.123 97.6053 843.645 92.3618C822.698 81.8799 792.192 72.3554 754.249 64.3247C678.413 48.2737 573.506 38.3218 457.532 38.3218C341.559 38.3218 236.652 48.2737 160.815 64.3247C122.873 72.3554 92.3669 81.8799 71.4199 92.3618C60.9414 97.6053 53.0082 103.013 47.7324 108.47C42.4679 113.915 40.0322 119.207 40.0322 124.322C40.0322 129.437 42.4679 134.728 47.7324 140.173C53.0082 145.63 60.9414 151.038 71.4199 156.282C92.3669 166.764 122.873 176.288 160.815 184.319C236.652 200.37 341.559 210.322 457.532 210.322V213.322C225.296 213.322 37.0322 173.475 37.0322 124.322C37.0322 75.1684 225.296 35.3218 457.532 35.3218C689.768 35.3218 878.032 75.1684 878.032 124.322C878.032 173.475 689.768 213.322 457.532 213.322V210.322C573.506 210.322 678.413 200.37 754.249 184.319C792.192 176.288 822.698 166.764 843.645 156.282C854.123 151.038 862.056 145.63 867.332 140.173C872.597 134.728 875.032 129.437 875.032 124.322Z" fill="url(#paint4_linear_374_1204)" shape-rendering="crispEdges"/>
</g>
<g filter="url(#filter5_d_374_1204)">
<path d="M875.032 124.322C875.032 119.207 872.597 113.915 867.332 108.47C862.056 103.013 854.123 97.6053 843.645 92.3618C822.698 81.8799 792.192 72.3554 754.249 64.3247C678.413 48.2737 573.506 38.3218 457.532 38.3218C341.559 38.3218 236.652 48.2737 160.815 64.3247C122.873 72.3554 92.3669 81.8799 71.4199 92.3618C60.9414 97.6053 53.0082 103.013 47.7324 108.47C42.4679 113.915 40.0322 119.207 40.0322 124.322C40.0322 129.437 42.4679 134.728 47.7324 140.173C53.0082 145.63 60.9414 151.038 71.4199 156.282C92.3669 166.764 122.873 176.288 160.815 184.319C236.652 200.37 341.559 210.322 457.532 210.322V213.322C225.296 213.322 37.0322 173.475 37.0322 124.322C37.0322 75.1684 225.296 35.3218 457.532 35.3218C689.768 35.3218 878.032 75.1684 878.032 124.322C878.032 173.475 689.768 213.322 457.532 213.322V210.322C573.506 210.322 678.413 200.37 754.249 184.319C792.192 176.288 822.698 166.764 843.645 156.282C854.123 151.038 862.056 145.63 867.332 140.173C872.597 134.728 875.032 129.437 875.032 124.322Z" fill="url(#paint5_linear_374_1204)" shape-rendering="crispEdges"/>
</g>
<defs>
<filter id="filter0_d_374_1204" x="-6.86646e-05" y="-1.93119e-05" width="915.065" height="252.065" filterUnits="userSpaceOnUse" color-interpolation-filters="sRGB">
<feFlood flood-opacity="0" result="BackgroundImageFix"/>
<feColorMatrix in="SourceAlpha" type="matrix" values="0 0 0 0 0 0 0 0 0 0 0 0 0 0 0 0 0 0 127 0" result="hardAlpha"/>
<feOffset dy="1.7105"/>
<feGaussianBlur stdDeviation="18.5161"/>
<feComposite in2="hardAlpha" operator="out"/>
<feColorMatrix type="matrix" values="0 0 0 0 0.803354 0 0 0 0 0.188645 0 0 0 0 0.188645 0 0 0 1 0"/>
<feBlend mode="normal" in2="BackgroundImageFix" result="effect1_dropShadow_374_1204"/>
<feBlend mode="normal" in="SourceGraphic" in2="effect1_dropShadow_374_1204" result="shape"/>
</filter>
<filter id="filter1_d_374_1204" x="-6.86646e-05" y="-1.93119e-05" width="915.065" height="252.065" filterUnits="userSpaceOnUse" color-interpolation-filters="sRGB">
<feFlood flood-opacity="0" result="BackgroundImageFix"/>
<feColorMatrix in="SourceAlpha" type="matrix" values="0 0 0 0 0 0 0 0 0 0 0 0 0 0 0 0 0 0 127 0" result="hardAlpha"/>
<feOffset dy="1.7105"/>
<feGaussianBlur stdDeviation="18.5161"/>
<feComposite in2="hardAlpha" operator="out"/>
<feColorMatrix type="matrix" values="0 0 0 0 0.803354 0 0 0 0 0.188645 0 0 0 0 0.188645 0 0 0 1 0"/>
<feBlend mode="normal" in2="BackgroundImageFix" result="effect1_dropShadow_374_1204"/>
<feBlend mode="normal" in="SourceGraphic" in2="effect1_dropShadow_374_1204" result="shape"/>
</filter>
<filter id="filter2_d_374_1204" x="-6.86646e-05" y="-1.93119e-05" width="915.065" height="252.065" filterUnits="userSpaceOnUse" color-interpolation-filters="sRGB">
<feFlood flood-opacity="0" result="BackgroundImageFix"/>
<feColorMatrix in="SourceAlpha" type="matrix" values="0 0 0 0 0 0 0 0 0 0 0 0 0 0 0 0 0 0 127 0" result="hardAlpha"/>
<feOffset dy="1.7105"/>
<feGaussianBlur stdDeviation="18.5161"/>
<feComposite in2="hardAlpha" operator="out"/>
<feColorMatrix type="matrix" values="0 0 0 0 0.803354 0 0 0 0 0.188645 0 0 0 0 0.188645 0 0 0 1 0"/>
<feBlend mode="normal" in2="BackgroundImageFix" result="effect1_dropShadow_374_1204"/>
<feBlend mode="normal" in="SourceGraphic" in2="effect1_dropShadow_374_1204" result="shape"/>
</filter>
<filter id="filter3_d_374_1204" x="-6.86646e-05" y="-1.93119e-05" width="915.065" height="252.065" filterUnits="userSpaceOnUse" color-interpolation-filters="sRGB">
<feFlood flood-opacity="0" result="BackgroundImageFix"/>
<feColorMatrix in="SourceAlpha" type="matrix" values="0 0 0 0 0 0 0 0 0 0 0 0 0 0 0 0 0 0 127 0" result="hardAlpha"/>
<feOffset dy="1.7105"/>
<feGaussianBlur stdDeviation="18.5161"/>
<feComposite in2="hardAlpha" operator="out"/>
<feColorMatrix type="matrix" values="0 0 0 0 0.803354 0 0 0 0 0.188645 0 0 0 0 0.188645 0 0 0 1 0"/>
<feBlend mode="normal" in2="BackgroundImageFix" result="effect1_dropShadow_374_1204"/>
<feBlend mode="normal" in="SourceGraphic" in2="effect1_dropShadow_374_1204" result="shape"/>
</filter>
<filter id="filter4_d_374_1204" x="-6.86646e-05" y="-1.93119e-05" width="915.065" height="252.065" filterUnits="userSpaceOnUse" color-interpolation-filters="sRGB">
<feFlood flood-opacity="0" result="BackgroundImageFix"/>
<feColorMatrix in="SourceAlpha" type="matrix" values="0 0 0 0 0 0 0 0 0 0 0 0 0 0 0 0 0 0 127 0" result="hardAlpha"/>
<feOffset dy="1.7105"/>
<feGaussianBlur stdDeviation="18.5161"/>
<feComposite in2="hardAlpha" operator="out"/>
<feColorMatrix type="matrix" values="0 0 0 0 0.803354 0 0 0 0 0.188645 0 0 0 0 0.188645 0 0 0 1 0"/>
<feBlend mode="normal" in2="BackgroundImageFix" result="effect1_dropShadow_374_1204"/>
<feBlend mode="normal" in="SourceGraphic" in2="effect1_dropShadow_374_1204" result="shape"/>
</filter>
<filter id="filter5_d_374_1204" x="-6.86646e-05" y="-1.93119e-05" width="915.065" height="252.065" filterUnits="userSpaceOnUse" color-interpolation-filters="sRGB">
<feFlood flood-opacity="0" result="BackgroundImageFix"/>
<feColorMatrix in="SourceAlpha" type="matrix" values="0 0 0 0 0 0 0 0 0 0 0 0 0 0 0 0 0 0 127 0" result="hardAlpha"/>
<feOffset dy="1.7105"/>
<feGaussianBlur stdDeviation="18.5161"/>
<feComposite in2="hardAlpha" operator="out"/>
<feColorMatrix type="matrix" values="0 0 0 0 0.803354 0 0 0 0 0.188645 0 0 0 0 0.188645 0 0 0 1 0"/>
<feBlend mode="normal" in2="BackgroundImageFix" result="effect1_dropShadow_374_1204"/>
<feBlend mode="normal" in="SourceGraphic" in2="effect1_dropShadow_374_1204" result="shape"/>
</filter>
<linearGradient id="paint0_linear_374_1204" x1="448.667" y1="531.356" x2="696.337" y2="-253.198" gradientUnits="userSpaceOnUse">
<stop offset="0.00677869" stop-color="#CD3030"/>
<stop offset="0.506086" stop-color="#F5D3A5" stop-opacity="0"/>
<stop offset="1" stop-color="#39293F" stop-opacity="0"/>
</linearGradient>
<linearGradient id="paint1_linear_374_1204" x1="878.064" y1="99.0717" x2="95.187" y2="-153.851" gradientUnits="userSpaceOnUse">
<stop offset="0.00677869" stop-color="#CD3030"/>
<stop offset="0.506086" stop-color="#F5D3A5" stop-opacity="0"/>
<stop offset="1" stop-color="#39293F" stop-opacity="0"/>
</linearGradient>
<linearGradient id="paint2_linear_374_1204" x1="291.721" y1="-304.843" x2="334.382" y2="516.769" gradientUnits="userSpaceOnUse">
<stop offset="0.00677869" stop-color="#CD3030"/>
<stop offset="0.506086" stop-color="#F5D3A5" stop-opacity="0"/>
<stop offset="1" stop-color="#39293F" stop-opacity="0"/>
</linearGradient>
<linearGradient id="paint3_linear_374_1204" x1="448.667" y1="531.356" x2="696.337" y2="-253.198" gradientUnits="userSpaceOnUse">
<stop offset="0.00677869" stop-color="#CD3030"/>
<stop offset="0.506086" stop-color="#F5D3A5" stop-opacity="0"/>
<stop offset="1" stop-color="#39293F" stop-opacity="0"/>
</linearGradient>
<linearGradient id="paint4_linear_374_1204" x1="878.064" y1="99.0717" x2="95.187" y2="-153.851" gradientUnits="userSpaceOnUse">
<stop offset="0.00677869" stop-color="#CD3030"/>
<stop offset="0.506086" stop-color="#F5D3A5" stop-opacity="0"/>
<stop offset="1" stop-color="#39293F" stop-opacity="0"/>
</linearGradient>
<linearGradient id="paint5_linear_374_1204" x1="291.721" y1="-304.843" x2="334.382" y2="516.769" gradientUnits="userSpaceOnUse">
<stop offset="0.00677869" stop-color="#CD3030"/>
<stop offset="0.506086" stop-color="#F5D3A5" stop-opacity="0"/>
<stop offset="1" stop-color="#39293F" stop-opacity="0"/>
</linearGradient>
</defs>
</svg>
