<svg width="94" height="94" viewBox="0 0 94 94" fill="none" xmlns="http://www.w3.org/2000/svg">
<rect x="0.16263" y="0.16263" width="93.6747" height="93.6747" rx="14.1488" fill="#2B2323" fill-opacity="0.42"/>
<rect x="0.16263" y="0.16263" width="93.6747" height="93.6747" rx="14.1488" stroke="url(#paint0_linear_283_1159)" stroke-width="0.32526"/>
<g style="mix-blend-mode:hard-light" filter="url(#filter1_f_283_1159)">
<circle cx="54.6432" cy="50.7404" r="13.0104" fill="url(#paint1_radial_283_1159)" fill-opacity="0.35"/>
</g>
<g filter="url(#filter2_f_283_1159)">
<path d="M64.3461 46.9993C64.3461 45.9136 64.2474 44.853 64.0577 43.8255L63.7794 42.3199L67.5644 40.1333C66.6452 37.3805 65.1776 34.8222 63.228 32.6218L59.4367 34.8109L58.2716 33.8136C56.667 32.4402 54.8099 31.3553 52.7816 30.6385L51.3357 30.1277V25.7545C49.9191 25.4653 48.467 25.3162 46.9994 25.3162C45.5317 25.3162 44.0796 25.4653 42.663 25.7545V30.1277L41.2171 30.6385C39.189 31.3553 37.3319 32.4402 35.7271 33.8136L34.562 34.8109L30.7694 32.6205C29.8265 33.6847 28.9943 34.8315 28.2842 36.0446L28.2855 36.0459L28.1572 36.2683C27.4569 37.4978 26.8806 38.7928 26.433 40.1333L30.2193 42.3199L29.941 43.8255C29.7512 44.8528 29.6526 45.9136 29.6526 46.9993C29.6526 48.085 29.7513 49.146 29.941 50.1731L30.2193 51.68L26.433 53.864C26.8803 55.2038 27.455 56.4987 28.1546 57.7278L28.2868 57.9552C28.9963 59.1674 29.8261 60.3133 30.7681 61.3768L34.562 59.1889L35.7271 60.1863C37.3318 61.5596 39.1891 62.6433 41.2171 63.3601L42.663 63.8708V68.2441C44.0797 68.5333 45.5317 68.6837 46.9994 68.6837C48.4671 68.6837 49.919 68.5333 51.3357 68.2441V63.8708L52.7816 63.3601C54.8097 62.6433 56.6669 61.5594 58.2716 60.1863L59.4367 59.1889L63.228 61.3768C65.1776 59.1762 66.6453 56.618 67.5644 53.8653L63.7794 51.68L64.0577 50.1744C64.2474 49.1467 64.3461 48.0851 64.3461 46.9993ZM68.6837 46.9993C68.6837 47.8185 68.6353 48.6279 68.5465 49.4247L72.6288 51.7816L72.2286 53.3711C71.0885 57.8849 68.747 62.0514 65.3994 65.3993L65.3968 65.4018C65.3102 65.4883 65.2217 65.5758 65.1313 65.6636L63.9548 66.8045L59.8738 64.4477C58.5773 65.4057 57.1698 66.2231 55.6734 66.877V71.5869L54.0953 72.0341C51.8068 72.6829 49.4204 73.02 46.9994 73.02C44.5781 73.02 42.1909 72.683 39.9021 72.0341L38.3253 71.5869V66.877C36.8286 66.223 35.4204 65.4061 34.1237 64.4477L30.0439 66.8045L28.8687 65.6636C28.7776 65.5752 28.6876 65.4875 28.6006 65.4006L28.5993 65.3993C27.012 63.8119 25.6515 62.0396 24.5374 60.1342L24.531 60.1253L24.4002 59.8978L24.3938 59.8864C23.2297 57.8441 22.3462 55.6519 21.7701 53.3711L21.3687 51.7816L25.4496 49.4247C25.3609 48.628 25.315 47.8184 25.315 46.9993C25.315 46.1796 25.3607 45.3698 25.4496 44.5725L21.3687 42.2169L21.7701 40.6275C22.3465 38.346 23.2303 36.1538 24.3951 34.1109L24.4014 34.1007L24.5298 33.8771L24.5349 33.8669C25.6492 31.9606 27.0114 30.1885 28.5993 28.6005C28.6879 28.5119 28.7777 28.4234 28.8674 28.3362L30.0427 27.194L34.1237 29.5496C35.4204 28.5914 36.8287 27.7742 38.3253 27.1203V22.413L39.9021 21.9657C42.1909 21.3168 44.5781 20.9785 46.9994 20.9785C49.4204 20.9785 51.8068 21.3169 54.0953 21.9657L55.6734 22.413V27.1203C57.1697 27.774 58.5773 28.5917 59.8738 29.5496L62.5368 28.0148L63.956 27.194L65.1313 28.3362L65.3968 28.5992L65.3994 28.6005C68.7469 31.9483 71.0885 36.1148 72.2286 40.6288L72.6288 42.2182L68.5465 44.5738C68.6353 45.3707 68.6837 46.1799 68.6837 46.9993Z" stroke="#F4A235" stroke-width="0.650519"/>
<path d="M51.3361 46.9997C51.3361 44.6044 49.3949 42.6633 46.9997 42.6633C44.6044 42.6633 42.6633 44.6044 42.6633 46.9997C42.6633 49.3949 44.6044 51.3361 46.9997 51.3361C49.3949 51.3361 51.3361 49.3949 51.3361 46.9997ZM55.6737 46.9997C55.6737 51.7901 51.7901 55.6737 46.9997 55.6737C42.2093 55.6737 38.3257 51.7901 38.3257 46.9997C38.3257 42.2093 42.2093 38.3257 46.9997 38.3257C51.7901 38.3257 55.6737 42.2093 55.6737 46.9997Z" stroke="#F4A235" stroke-width="0.650519"/>
</g>
<g filter="url(#filter3_ddi_283_1159)">
<path d="M64.3461 46.9993C64.3461 45.9136 64.2474 44.853 64.0577 43.8255L63.7794 42.3199L67.5644 40.1333C66.6452 37.3805 65.1776 34.8222 63.228 32.6218L59.4367 34.8109L58.2716 33.8136C56.667 32.4402 54.8099 31.3553 52.7816 30.6385L51.3357 30.1277V25.7545C49.9191 25.4653 48.467 25.3162 46.9994 25.3162C45.5317 25.3162 44.0796 25.4653 42.663 25.7545V30.1277L41.2171 30.6385C39.189 31.3553 37.3319 32.4402 35.7271 33.8136L34.562 34.8109L30.7694 32.6205C29.8265 33.6847 28.9943 34.8315 28.2842 36.0446L28.2855 36.0459L28.1572 36.2683C27.4569 37.4978 26.8806 38.7928 26.433 40.1333L30.2193 42.3199L29.941 43.8255C29.7512 44.8528 29.6526 45.9136 29.6526 46.9993C29.6526 48.085 29.7513 49.146 29.941 50.1731L30.2193 51.68L26.433 53.864C26.8803 55.2038 27.455 56.4987 28.1546 57.7278L28.2868 57.9552C28.9963 59.1674 29.8261 60.3133 30.7681 61.3768L34.562 59.1889L35.7271 60.1863C37.3318 61.5596 39.1891 62.6433 41.2171 63.3601L42.663 63.8708V68.2441C44.0797 68.5333 45.5317 68.6837 46.9994 68.6837C48.4671 68.6837 49.919 68.5333 51.3357 68.2441V63.8708L52.7816 63.3601C54.8097 62.6433 56.6669 61.5594 58.2716 60.1863L59.4367 59.1889L63.228 61.3768C65.1776 59.1762 66.6453 56.618 67.5644 53.8653L63.7794 51.68L64.0577 50.1744C64.2474 49.1467 64.3461 48.0851 64.3461 46.9993ZM68.6837 46.9993C68.6837 47.8185 68.6353 48.6279 68.5465 49.4247L72.6288 51.7816L72.2286 53.3711C71.0885 57.8849 68.747 62.0514 65.3994 65.3993L65.3968 65.4018C65.3102 65.4883 65.2217 65.5758 65.1313 65.6636L63.9548 66.8045L59.8738 64.4477C58.5773 65.4057 57.1698 66.2231 55.6734 66.877V71.5869L54.0953 72.0341C51.8068 72.6829 49.4204 73.02 46.9994 73.02C44.5781 73.02 42.1909 72.683 39.9021 72.0341L38.3253 71.5869V66.877C36.8286 66.223 35.4204 65.4061 34.1237 64.4477L30.0439 66.8045L28.8687 65.6636C28.7776 65.5752 28.6876 65.4875 28.6006 65.4006L28.5993 65.3993C27.012 63.8119 25.6515 62.0396 24.5374 60.1342L24.531 60.1253L24.4002 59.8978L24.3938 59.8864C23.2297 57.8441 22.3462 55.6519 21.7701 53.3711L21.3687 51.7816L25.4496 49.4247C25.3609 48.628 25.315 47.8184 25.315 46.9993C25.315 46.1796 25.3607 45.3698 25.4496 44.5725L21.3687 42.2169L21.7701 40.6275C22.3465 38.346 23.2303 36.1538 24.3951 34.1109L24.4014 34.1007L24.5298 33.8771L24.5349 33.8669C25.6492 31.9606 27.0114 30.1885 28.5993 28.6005C28.6879 28.5119 28.7777 28.4234 28.8674 28.3362L30.0427 27.194L34.1237 29.5496C35.4204 28.5914 36.8287 27.7742 38.3253 27.1203V22.413L39.9021 21.9657C42.1909 21.3168 44.5781 20.9785 46.9994 20.9785C49.4204 20.9785 51.8068 21.3169 54.0953 21.9657L55.6734 22.413V27.1203C57.1697 27.774 58.5773 28.5917 59.8738 29.5496L62.5368 28.0148L63.956 27.194L65.1313 28.3362L65.3968 28.5992L65.3994 28.6005C68.7469 31.9483 71.0885 36.1148 72.2286 40.6288L72.6288 42.2182L68.5465 44.5738C68.6353 45.3707 68.6837 46.1799 68.6837 46.9993Z" stroke="#CD3030" stroke-opacity="0.21" stroke-width="0.390311"/>
<path d="M51.3361 46.9997C51.3361 44.6044 49.3949 42.6633 46.9997 42.6633C44.6044 42.6633 42.6633 44.6044 42.6633 46.9997C42.6633 49.3949 44.6044 51.3361 46.9997 51.3361C49.3949 51.3361 51.3361 49.3949 51.3361 46.9997ZM55.6737 46.9997C55.6737 51.7901 51.7901 55.6737 46.9997 55.6737C42.2093 55.6737 38.3257 51.7901 38.3257 46.9997C38.3257 42.2093 42.2093 38.3257 46.9997 38.3257C51.7901 38.3257 55.6737 42.2093 55.6737 46.9997Z" stroke="#CD3030" stroke-opacity="0.21" stroke-width="0.390311"/>
</g>
<path d="M64.3461 46.9993C64.3461 45.9136 64.2474 44.853 64.0577 43.8255L63.7794 42.3199L67.5644 40.1333C66.6452 37.3805 65.1776 34.8222 63.228 32.6218L59.4367 34.8109L58.2716 33.8136C56.667 32.4402 54.8099 31.3553 52.7816 30.6385L51.3357 30.1277V25.7545C49.9191 25.4653 48.467 25.3162 46.9994 25.3162C45.5317 25.3162 44.0796 25.4653 42.663 25.7545V30.1277L41.2171 30.6385C39.189 31.3553 37.3319 32.4402 35.7271 33.8136L34.562 34.8109L30.7694 32.6205C29.8265 33.6847 28.9943 34.8315 28.2842 36.0446L28.2855 36.0459L28.1572 36.2683C27.4569 37.4978 26.8806 38.7928 26.433 40.1333L30.2193 42.3199L29.941 43.8255C29.7512 44.8528 29.6526 45.9136 29.6526 46.9993C29.6526 48.085 29.7513 49.146 29.941 50.1731L30.2193 51.68L26.433 53.864C26.8803 55.2038 27.455 56.4987 28.1546 57.7278L28.2868 57.9552C28.9963 59.1674 29.8261 60.3133 30.7681 61.3768L34.562 59.1889L35.7271 60.1863C37.3318 61.5596 39.1891 62.6433 41.2171 63.3601L42.663 63.8708V68.2441C44.0797 68.5333 45.5317 68.6837 46.9994 68.6837C48.4671 68.6837 49.919 68.5333 51.3357 68.2441V63.8708L52.7816 63.3601C54.8097 62.6433 56.6669 61.5594 58.2716 60.1863L59.4367 59.1889L63.228 61.3768C65.1776 59.1762 66.6453 56.618 67.5644 53.8653L63.7794 51.68L64.0577 50.1744C64.2474 49.1467 64.3461 48.0851 64.3461 46.9993ZM68.6837 46.9993C68.6837 47.8185 68.6353 48.6279 68.5465 49.4247L72.6288 51.7816L72.2286 53.3711C71.0885 57.8849 68.747 62.0514 65.3994 65.3993L65.3968 65.4018C65.3102 65.4883 65.2217 65.5758 65.1313 65.6636L63.9548 66.8045L59.8738 64.4477C58.5773 65.4057 57.1698 66.2231 55.6734 66.877V71.5869L54.0953 72.0341C51.8068 72.6829 49.4204 73.02 46.9994 73.02C44.5781 73.02 42.1909 72.683 39.9021 72.0341L38.3253 71.5869V66.877C36.8286 66.223 35.4204 65.4061 34.1237 64.4477L30.0439 66.8045L28.8687 65.6636C28.7776 65.5752 28.6876 65.4875 28.6006 65.4006L28.5993 65.3993C27.012 63.8119 25.6515 62.0396 24.5374 60.1342L24.531 60.1253L24.4002 59.8978L24.3938 59.8864C23.2297 57.8441 22.3462 55.6519 21.7701 53.3711L21.3687 51.7816L25.4496 49.4247C25.3609 48.628 25.315 47.8184 25.315 46.9993C25.315 46.1796 25.3607 45.3698 25.4496 44.5725L21.3687 42.2169L21.7701 40.6275C22.3465 38.346 23.2303 36.1538 24.3951 34.1109L24.4014 34.1007L24.5298 33.8771L24.5349 33.8669C25.6492 31.9606 27.0114 30.1885 28.5993 28.6005C28.6879 28.5119 28.7777 28.4234 28.8674 28.3362L30.0427 27.194L34.1237 29.5496C35.4204 28.5914 36.8287 27.7742 38.3253 27.1203V22.413L39.9021 21.9657C42.1909 21.3168 44.5781 20.9785 46.9994 20.9785C49.4204 20.9785 51.8068 21.3169 54.0953 21.9657L55.6734 22.413V27.1203C57.1697 27.774 58.5773 28.5917 59.8738 29.5496L62.5368 28.0148L63.956 27.194L65.1313 28.3362L65.3968 28.5992L65.3994 28.6005C68.7469 31.9483 71.0885 36.1148 72.2286 40.6288L72.6288 42.2182L68.5465 44.5738C68.6353 45.3707 68.6837 46.1799 68.6837 46.9993Z" stroke="#FCFCFC" stroke-width="0.390311"/>
<path d="M51.3361 46.9997C51.3361 44.6044 49.3949 42.6633 46.9997 42.6633C44.6044 42.6633 42.6633 44.6044 42.6633 46.9997C42.6633 49.3949 44.6044 51.3361 46.9997 51.3361C49.3949 51.3361 51.3361 49.3949 51.3361 46.9997ZM55.6737 46.9997C55.6737 51.7901 51.7901 55.6737 46.9997 55.6737C42.2093 55.6737 38.3257 51.7901 38.3257 46.9997C38.3257 42.2093 42.2093 38.3257 46.9997 38.3257C51.7901 38.3257 55.6737 42.2093 55.6737 46.9997Z" stroke="#FCFCFC" stroke-width="0.390311"/>
<defs>
<filter id="filter1_f_283_1159" x="28.2552" y="24.3523" width="52.7763" height="52.7763" filterUnits="userSpaceOnUse" color-interpolation-filters="sRGB">
<feFlood flood-opacity="0" result="BackgroundImageFix"/>
<feBlend mode="normal" in="SourceGraphic" in2="BackgroundImageFix" result="shape"/>
<feGaussianBlur stdDeviation="6.68882" result="effect1_foregroundBlur_283_1159"/>
</filter>
<filter id="filter2_f_283_1159" x="18.3911" y="18.0512" width="57.2154" height="57.896" filterUnits="userSpaceOnUse" color-interpolation-filters="sRGB">
<feFlood flood-opacity="0" result="BackgroundImageFix"/>
<feBlend mode="normal" in="SourceGraphic" in2="BackgroundImageFix" result="shape"/>
<feGaussianBlur stdDeviation="1.30104" result="effect1_foregroundBlur_283_1159"/>
</filter>
<filter id="filter3_ddi_283_1159" x="12.8789" y="18.8761" width="68.2393" height="68.9605" filterUnits="userSpaceOnUse" color-interpolation-filters="sRGB">
<feFlood flood-opacity="0" result="BackgroundImageFix"/>
<feColorMatrix in="SourceAlpha" type="matrix" values="0 0 0 0 0 0 0 0 0 0 0 0 0 0 0 0 0 0 127 0" result="hardAlpha"/>
<feOffset dy="1.85477"/>
<feGaussianBlur stdDeviation="1.58927"/>
<feColorMatrix type="matrix" values="0 0 0 0 0.224 0 0 0 0 0.15 0 0 0 0 0 0 0 0 0.7 0"/>
<feBlend mode="multiply" in2="BackgroundImageFix" result="effect1_dropShadow_283_1159"/>
<feColorMatrix in="SourceAlpha" type="matrix" values="0 0 0 0 0 0 0 0 0 0 0 0 0 0 0 0 0 0 127 0" result="hardAlpha"/>
<feOffset dy="6.35707"/>
<feGaussianBlur stdDeviation="4.1321"/>
<feColorMatrix type="matrix" values="0 0 0 0 0.56 0 0 0 0 0.44 0 0 0 0 0 0 0 0 1 0"/>
<feBlend mode="color-dodge" in2="effect1_dropShadow_283_1159" result="effect2_dropShadow_283_1159"/>
<feBlend mode="normal" in="SourceGraphic" in2="effect2_dropShadow_283_1159" result="shape"/>
<feColorMatrix in="SourceAlpha" type="matrix" values="0 0 0 0 0 0 0 0 0 0 0 0 0 0 0 0 0 0 127 0" result="hardAlpha"/>
<feOffset dx="-0.41321" dy="0.82642"/>
<feGaussianBlur stdDeviation="0.206605"/>
<feComposite in2="hardAlpha" operator="arithmetic" k2="-1" k3="1"/>
<feColorMatrix type="matrix" values="0 0 0 0 1 0 0 0 0 1 0 0 0 0 1 0 0 0 0.5 0"/>
<feBlend mode="normal" in2="shape" result="effect3_innerShadow_283_1159"/>
</filter>
<linearGradient id="paint0_linear_283_1159" x1="-2.62937" y1="36.4382" x2="94.2821" y2="40.9785" gradientUnits="userSpaceOnUse">
<stop stop-color="#F4A235"/>
<stop offset="0.644231" stop-color="#CD3030"/>
<stop offset="1" stop-color="#39293F"/>
</linearGradient>
<radialGradient id="paint1_radial_283_1159" cx="0" cy="0" r="1" gradientUnits="userSpaceOnUse" gradientTransform="translate(54.6432 50.7404) rotate(90) scale(13.0104 52.4525)">
<stop offset="0.519231" stop-color="#F4A235"/>
<stop offset="1" stop-color="#CD3030"/>
</radialGradient>
</defs>
</svg>
