<svg width="94" height="94" viewBox="0 0 94 94" fill="none" xmlns="http://www.w3.org/2000/svg">
<rect x="0.16263" y="0.16263" width="93.6747" height="93.6747" rx="14.1488" fill="#2B2323" fill-opacity="0.42"/>
<rect x="0.16263" y="0.16263" width="93.6747" height="93.6747" rx="14.1488" stroke="url(#paint0_linear_283_1146)" stroke-width="0.32526"/>
<g style="mix-blend-mode:hard-light" filter="url(#filter1_f_283_1146)">
<circle cx="54.6437" cy="50.7404" r="13.0104" fill="url(#paint1_radial_283_1146)" fill-opacity="0.35"/>
</g>
<g filter="url(#filter2_f_283_1146)">
<path d="M31.8545 36.5708C31.8545 44.935 38.6357 51.7163 47 51.7163C55.3642 51.7162 62.1445 44.935 62.1445 36.5708V25.8169H51.6143V29.7612H56.0059V39.5396H51.167V34.5991H46.7764V25.8169H31.8545V36.5708ZM44.5811 56.4116L44.2988 56.3735C34.54 55.0551 27.0166 46.691 27.0166 36.5708V20.979H66.9834V36.5708C66.9834 46.6911 59.459 55.0551 49.7002 56.3735L49.4189 56.4116V68.1821H59.8477V73.021H34.1523V68.1821H44.5811V56.4116Z" stroke="#F4A235" stroke-width="0.650519"/>
</g>
<g filter="url(#filter3_ddi_283_1146)">
<path d="M31.6924 36.5708C31.6924 45.0249 38.5459 51.8784 47 51.8784C55.454 51.8783 62.3076 45.0248 62.3076 36.5708V25.6548H51.4521V29.9233H55.8428V39.3765H51.3301V34.437H46.9385V25.6548H31.6924V36.5708ZM44.7432 56.269L44.3203 56.2124C34.6412 54.9046 27.1797 46.6084 27.1797 36.5708V21.1421H66.8203V36.5708C66.8203 46.6086 59.3579 54.9047 49.6787 56.2124L49.2559 56.269V68.3452H59.6846V72.8579H34.3145V68.3452H44.7432V56.269Z" stroke="#CD3030" stroke-opacity="0.21" stroke-width="0.975779"/>
</g>
<g filter="url(#filter4_d_283_1146)">
<path d="M31.9365 36.5708C31.9365 44.8901 38.6806 51.6353 47 51.6353C55.3192 51.6351 62.0635 44.8901 62.0635 36.5708V25.8989H51.6953V29.6802H56.0869V39.6206H51.0859V34.6802H46.6953V25.8989H31.9365V36.5708ZM44.499 56.4829L44.2881 56.4536C34.4894 55.1298 26.9355 46.7323 26.9355 36.5708V20.8979H67.0645V36.5708C67.0645 46.7322 59.5103 55.1296 49.7119 56.4536L49.5 56.4829V68.1011H59.9287V73.1021H34.0703V68.1011H44.499V56.4829Z" stroke="#FCFCFC" stroke-width="0.487889" shape-rendering="crispEdges"/>
</g>
<defs>
<filter id="filter1_f_283_1146" x="28.2557" y="24.3523" width="52.7763" height="52.7763" filterUnits="userSpaceOnUse" color-interpolation-filters="sRGB">
<feFlood flood-opacity="0" result="BackgroundImageFix"/>
<feBlend mode="normal" in="SourceGraphic" in2="BackgroundImageFix" result="shape"/>
<feGaussianBlur stdDeviation="6.68882" result="effect1_foregroundBlur_283_1146"/>
</filter>
<filter id="filter2_f_283_1146" x="24.0893" y="18.0517" width="45.8209" height="57.896" filterUnits="userSpaceOnUse" color-interpolation-filters="sRGB">
<feFlood flood-opacity="0" result="BackgroundImageFix"/>
<feBlend mode="normal" in="SourceGraphic" in2="BackgroundImageFix" result="shape"/>
<feGaussianBlur stdDeviation="1.30104" result="effect1_foregroundBlur_283_1146"/>
</filter>
<filter id="filter3_ddi_283_1146" x="20.8944" y="19.316" width="52.2106" height="64.2858" filterUnits="userSpaceOnUse" color-interpolation-filters="sRGB">
<feFlood flood-opacity="0" result="BackgroundImageFix"/>
<feColorMatrix in="SourceAlpha" type="matrix" values="0 0 0 0 0 0 0 0 0 0 0 0 0 0 0 0 0 0 127 0" result="hardAlpha"/>
<feOffset dy="1.30104"/>
<feGaussianBlur stdDeviation="1.1148"/>
<feColorMatrix type="matrix" values="0 0 0 0 0.224 0 0 0 0 0.15 0 0 0 0 0 0 0 0 0.7 0"/>
<feBlend mode="multiply" in2="BackgroundImageFix" result="effect1_dropShadow_283_1146"/>
<feColorMatrix in="SourceAlpha" type="matrix" values="0 0 0 0 0 0 0 0 0 0 0 0 0 0 0 0 0 0 127 0" result="hardAlpha"/>
<feOffset dy="4.45921"/>
<feGaussianBlur stdDeviation="2.89849"/>
<feColorMatrix type="matrix" values="0 0 0 0 0.56 0 0 0 0 0.44 0 0 0 0 0 0 0 0 1 0"/>
<feBlend mode="color-dodge" in2="effect1_dropShadow_283_1146" result="effect2_dropShadow_283_1146"/>
<feBlend mode="normal" in="SourceGraphic" in2="effect2_dropShadow_283_1146" result="shape"/>
<feColorMatrix in="SourceAlpha" type="matrix" values="0 0 0 0 0 0 0 0 0 0 0 0 0 0 0 0 0 0 127 0" result="hardAlpha"/>
<feOffset dx="-0.289849" dy="0.579697"/>
<feGaussianBlur stdDeviation="0.144924"/>
<feComposite in2="hardAlpha" operator="arithmetic" k2="-1" k3="1"/>
<feColorMatrix type="matrix" values="0 0 0 0 1 0 0 0 0 1 0 0 0 0 1 0 0 0 0.5 0"/>
<feBlend mode="normal" in2="shape" result="effect3_innerShadow_283_1146"/>
</filter>
<filter id="filter4_d_283_1146" x="26.6914" y="20.6538" width="40.6167" height="52.9846" filterUnits="userSpaceOnUse" color-interpolation-filters="sRGB">
<feFlood flood-opacity="0" result="BackgroundImageFix"/>
<feColorMatrix in="SourceAlpha" type="matrix" values="0 0 0 0 0 0 0 0 0 0 0 0 0 0 0 0 0 0 127 0" result="hardAlpha"/>
<feOffset dy="0.292734"/>
<feComposite in2="hardAlpha" operator="out"/>
<feColorMatrix type="matrix" values="0 0 0 0 0.988235 0 0 0 0 0.827451 0 0 0 0 0.411765 0 0 0 1 0"/>
<feBlend mode="normal" in2="BackgroundImageFix" result="effect1_dropShadow_283_1146"/>
<feBlend mode="normal" in="SourceGraphic" in2="effect1_dropShadow_283_1146" result="shape"/>
</filter>
<linearGradient id="paint0_linear_283_1146" x1="-2.62937" y1="36.4382" x2="94.2821" y2="40.9785" gradientUnits="userSpaceOnUse">
<stop stop-color="#F4A235"/>
<stop offset="0.644231" stop-color="#CD3030"/>
<stop offset="1" stop-color="#39293F"/>
</linearGradient>
<radialGradient id="paint1_radial_283_1146" cx="0" cy="0" r="1" gradientUnits="userSpaceOnUse" gradientTransform="translate(54.6437 50.7404) rotate(90) scale(13.0104 52.4525)">
<stop offset="0.519231" stop-color="#F4A235"/>
<stop offset="1" stop-color="#CD3030"/>
</radialGradient>
</defs>
</svg>
