<svg width="34" height="34" viewBox="0 0 34 34" fill="none" xmlns="http://www.w3.org/2000/svg">
<g filter="url(#filter0_i_413_1191)">
<g clip-path="url(#clip0_413_1191)">
<rect width="34" height="34" rx="8" fill="#171612" fill-opacity="0.58"/>
<path d="M12.5677 10.7786C12.5674 11.25 12.3793 11.7021 12.0446 12.0353C11.7099 12.3685 11.2561 12.5556 10.7829 12.5554C10.3098 12.5551 9.85621 12.3676 9.52184 12.0341C9.18748 11.7005 8.99976 11.2483 9 10.7768C9.00024 10.3053 9.1884 9.85325 9.52311 9.52004C9.85781 9.18683 10.3116 8.99976 10.7847 9C11.2578 9.00024 11.7115 9.18775 12.0458 9.5213C12.3802 9.85485 12.5679 10.3071 12.5677 10.7786ZM12.6212 13.8717H9.05352V25H12.6212V13.8717ZM18.2581 13.8717H14.7083V25H18.2225V19.1603C18.2225 15.9072 22.4769 15.605 22.4769 19.1603V25H26V17.9515C26 12.4674 19.703 12.6718 18.2225 15.365L18.2581 13.8717Z" fill="white"/>
<g style="mix-blend-mode:plus-lighter" opacity="0.36" filter="url(#filter1_f_413_1191)">
<ellipse cx="29" cy="46" rx="19" ry="24" fill="url(#paint0_radial_413_1191)"/>
</g>
</g>
<rect x="0.5" y="0.5" width="33" height="33" rx="7.5" stroke="url(#paint1_linear_413_1191)"/>
</g>
<defs>
<filter id="filter0_i_413_1191" x="0" y="0" width="34" height="38" filterUnits="userSpaceOnUse" color-interpolation-filters="sRGB">
<feFlood flood-opacity="0" result="BackgroundImageFix"/>
<feBlend mode="normal" in="SourceGraphic" in2="BackgroundImageFix" result="shape"/>
<feColorMatrix in="SourceAlpha" type="matrix" values="0 0 0 0 0 0 0 0 0 0 0 0 0 0 0 0 0 0 127 0" result="hardAlpha"/>
<feOffset dy="7"/>
<feGaussianBlur stdDeviation="2"/>
<feComposite in2="hardAlpha" operator="arithmetic" k2="-1" k3="1"/>
<feColorMatrix type="matrix" values="0 0 0 0 0 0 0 0 0 0 0 0 0 0 0 0 0 0 0.42 0"/>
<feBlend mode="normal" in2="shape" result="effect1_innerShadow_413_1191"/>
</filter>
<filter id="filter1_f_413_1191" x="0" y="12" width="58" height="68" filterUnits="userSpaceOnUse" color-interpolation-filters="sRGB">
<feFlood flood-opacity="0" result="BackgroundImageFix"/>
<feBlend mode="normal" in="SourceGraphic" in2="BackgroundImageFix" result="shape"/>
<feGaussianBlur stdDeviation="5" result="effect1_foregroundBlur_413_1191"/>
</filter>
<radialGradient id="paint0_radial_413_1191" cx="0" cy="0" r="1" gradientTransform="matrix(19.5315 2.69663 -1.39767 37.6835 28.4685 43.3034)" gradientUnits="userSpaceOnUse">
<stop stop-color="#F4A235"/>
<stop offset="0.716346" stop-color="#CD3030"/>
</radialGradient>
<linearGradient id="paint1_linear_413_1191" x1="-0.951049" y1="13.1798" x2="34.102" y2="14.822" gradientUnits="userSpaceOnUse">
<stop stop-color="#F4A235"/>
<stop offset="0.644231" stop-color="#CD3030"/>
<stop offset="1" stop-color="#39293F"/>
</linearGradient>
<clipPath id="clip0_413_1191">
<rect width="34" height="34" rx="8" fill="white"/>
</clipPath>
</defs>
</svg>
