<svg width="34" height="34" viewBox="0 0 34 34" fill="none" xmlns="http://www.w3.org/2000/svg">
<g filter="url(#filter0_i_413_1187)">
<g clip-path="url(#clip0_413_1187)">
<rect width="34" height="34" rx="8" fill="#171612" fill-opacity="0.58"/>
<path d="M26 11.7647C25.3375 12.0735 24.6233 12.2765 23.8834 12.3735C24.6405 11.9059 25.2256 11.1647 25.501 10.2735C24.7868 10.7147 23.9952 11.0235 23.1606 11.2C22.4809 10.4412 21.5258 10 20.4417 10C18.4197 10 16.7677 11.6941 16.7677 13.7853C16.7677 14.0853 16.8021 14.3765 16.8623 14.65C13.7992 14.4912 11.0717 12.9824 9.25621 10.6971C8.93786 11.2529 8.75717 11.9059 8.75717 12.5941C8.75717 13.9088 9.40249 15.0735 10.4006 15.7353C9.78968 15.7353 9.2218 15.5588 8.72275 15.2941V15.3206C8.72275 17.1559 9.99618 18.6912 11.6826 19.0353C11.1412 19.1872 10.5727 19.2084 10.022 19.0971C10.2557 19.8492 10.7134 20.5074 11.3307 20.9791C11.948 21.4507 12.694 21.7121 13.4637 21.7265C12.159 22.7857 10.5417 23.3582 8.87763 23.35C8.58509 23.35 8.29254 23.3324 8 23.2971C9.6348 24.3735 11.5793 25 13.6616 25C20.4417 25 24.1673 19.2294 24.1673 14.2265C24.1673 14.0588 24.1673 13.9 24.1587 13.7324C24.8815 13.2029 25.501 12.5324 26 11.7647Z" fill="white"/>
<g style="mix-blend-mode:plus-lighter" opacity="0.36" filter="url(#filter1_f_413_1187)">
<ellipse cx="29" cy="46" rx="19" ry="24" fill="url(#paint0_radial_413_1187)"/>
</g>
</g>
<rect x="0.5" y="0.5" width="33" height="33" rx="7.5" stroke="url(#paint1_linear_413_1187)"/>
</g>
<defs>
<filter id="filter0_i_413_1187" x="0" y="0" width="34" height="38" filterUnits="userSpaceOnUse" color-interpolation-filters="sRGB">
<feFlood flood-opacity="0" result="BackgroundImageFix"/>
<feBlend mode="normal" in="SourceGraphic" in2="BackgroundImageFix" result="shape"/>
<feColorMatrix in="SourceAlpha" type="matrix" values="0 0 0 0 0 0 0 0 0 0 0 0 0 0 0 0 0 0 127 0" result="hardAlpha"/>
<feOffset dy="7"/>
<feGaussianBlur stdDeviation="2"/>
<feComposite in2="hardAlpha" operator="arithmetic" k2="-1" k3="1"/>
<feColorMatrix type="matrix" values="0 0 0 0 0 0 0 0 0 0 0 0 0 0 0 0 0 0 0.42 0"/>
<feBlend mode="normal" in2="shape" result="effect1_innerShadow_413_1187"/>
</filter>
<filter id="filter1_f_413_1187" x="0" y="12" width="58" height="68" filterUnits="userSpaceOnUse" color-interpolation-filters="sRGB">
<feFlood flood-opacity="0" result="BackgroundImageFix"/>
<feBlend mode="normal" in="SourceGraphic" in2="BackgroundImageFix" result="shape"/>
<feGaussianBlur stdDeviation="5" result="effect1_foregroundBlur_413_1187"/>
</filter>
<radialGradient id="paint0_radial_413_1187" cx="0" cy="0" r="1" gradientTransform="matrix(19.5315 2.69663 -1.39767 37.6835 28.4685 43.3034)" gradientUnits="userSpaceOnUse">
<stop stop-color="#F4A235"/>
<stop offset="0.716346" stop-color="#CD3030"/>
</radialGradient>
<linearGradient id="paint1_linear_413_1187" x1="-0.951049" y1="13.1798" x2="34.102" y2="14.822" gradientUnits="userSpaceOnUse">
<stop stop-color="#F4A235"/>
<stop offset="0.644231" stop-color="#CD3030"/>
<stop offset="1" stop-color="#39293F"/>
</linearGradient>
<clipPath id="clip0_413_1187">
<rect width="34" height="34" rx="8" fill="white"/>
</clipPath>
</defs>
</svg>
