<svg width="34" height="34" viewBox="0 0 34 34" fill="none" xmlns="http://www.w3.org/2000/svg">
<g filter="url(#filter0_i_413_1183)">
<g clip-path="url(#clip0_413_1183)">
<rect width="34" height="34" rx="8" fill="#171612" fill-opacity="0.58"/>
<path d="M19 18.35H21.1429L22 14.75H19V12.95C19 12.023 19 11.15 20.7143 11.15H22V8.126C21.7206 8.0873 20.6654 8 19.5511 8C17.224 8 15.5714 9.4913 15.5714 12.23V14.75H13V18.35H15.5714V26H19V18.35Z" fill="white"/>
<g style="mix-blend-mode:plus-lighter" opacity="0.36" filter="url(#filter1_f_413_1183)">
<ellipse cx="29" cy="46" rx="19" ry="24" fill="url(#paint0_radial_413_1183)"/>
</g>
</g>
<rect x="0.5" y="0.5" width="33" height="33" rx="7.5" stroke="url(#paint1_linear_413_1183)"/>
</g>
<defs>
<filter id="filter0_i_413_1183" x="0" y="0" width="34" height="38" filterUnits="userSpaceOnUse" color-interpolation-filters="sRGB">
<feFlood flood-opacity="0" result="BackgroundImageFix"/>
<feBlend mode="normal" in="SourceGraphic" in2="BackgroundImageFix" result="shape"/>
<feColorMatrix in="SourceAlpha" type="matrix" values="0 0 0 0 0 0 0 0 0 0 0 0 0 0 0 0 0 0 127 0" result="hardAlpha"/>
<feOffset dy="7"/>
<feGaussianBlur stdDeviation="2"/>
<feComposite in2="hardAlpha" operator="arithmetic" k2="-1" k3="1"/>
<feColorMatrix type="matrix" values="0 0 0 0 0 0 0 0 0 0 0 0 0 0 0 0 0 0 0.42 0"/>
<feBlend mode="normal" in2="shape" result="effect1_innerShadow_413_1183"/>
</filter>
<filter id="filter1_f_413_1183" x="0" y="12" width="58" height="68" filterUnits="userSpaceOnUse" color-interpolation-filters="sRGB">
<feFlood flood-opacity="0" result="BackgroundImageFix"/>
<feBlend mode="normal" in="SourceGraphic" in2="BackgroundImageFix" result="shape"/>
<feGaussianBlur stdDeviation="5" result="effect1_foregroundBlur_413_1183"/>
</filter>
<radialGradient id="paint0_radial_413_1183" cx="0" cy="0" r="1" gradientTransform="matrix(19.5315 2.69663 -1.39767 37.6835 28.4685 43.3034)" gradientUnits="userSpaceOnUse">
<stop stop-color="#F4A235"/>
<stop offset="0.716346" stop-color="#CD3030"/>
</radialGradient>
<linearGradient id="paint1_linear_413_1183" x1="-0.951049" y1="13.1798" x2="34.102" y2="14.822" gradientUnits="userSpaceOnUse">
<stop stop-color="#F4A235"/>
<stop offset="0.644231" stop-color="#CD3030"/>
<stop offset="1" stop-color="#39293F"/>
</linearGradient>
<clipPath id="clip0_413_1183">
<rect width="34" height="34" rx="8" fill="white"/>
</clipPath>
</defs>
</svg>
