<svg width="24" height="24" viewBox="0 0 24 24" fill="none" xmlns="http://www.w3.org/2000/svg">
<path d="M12 22.0002C17.5228 22.0002 22 17.5231 22 12.0002C22 6.4774 17.5228 2.00024 12 2.00024C6.47715 2.00024 2 6.4774 2 12.0002C2 17.5231 6.47715 22.0002 12 22.0002Z" stroke="#E6E2E8" stroke-width="2" stroke-linecap="round" stroke-linejoin="round"/>
<path d="M12 13.9998C13.1046 13.9998 14 13.1043 14 11.9998C14 10.8952 13.1046 9.99976 12 9.99976C10.8954 9.99976 10 10.8952 10 11.9998C10 13.1043 10.8954 13.9998 12 13.9998Z" stroke="#E6E2E8" stroke-width="2" stroke-linecap="round" stroke-linejoin="round"/>
<path d="M12 18C15.3137 18 18 15.3137 18 12C18 8.68629 15.3137 6 12 6C8.68629 6 6 8.68629 6 12C6 15.3137 8.68629 18 12 18Z" stroke="#E6E2E8" stroke-width="2" stroke-linecap="round" stroke-linejoin="round"/>
<path d="M11.9998 14.0001V18.0001M10.0998 12.6201L6.2998 13.8501M10.8198 10.3801L8.4698 7.15015M13.8998 12.6201L17.6998 13.8501M13.1798 10.3801L15.5298 7.15015" stroke="#E6E2E8" stroke-width="2" stroke-linecap="round" stroke-linejoin="round"/>
</svg>
