<svg width="24" height="24" viewBox="0 0 24 24" fill="none" xmlns="http://www.w3.org/2000/svg">
<g clip-path="url(#clip0_383_1225)">
<path fill-rule="evenodd" clip-rule="evenodd" d="M3.51472 3.51472C5.76516 1.26428 8.8174 0 12 0C15.1826 0 18.2348 1.26428 20.4853 3.51472C21.1183 4.14776 21.6734 4.84434 22.1442 5.58944L20.0308 6.92493C19.6581 6.33514 19.2188 5.78373 18.7175 5.28249C16.9359 3.50089 14.5196 2.5 12 2.5C9.48044 2.5 7.06408 3.50089 5.28249 5.28249C3.50089 7.06408 2.5 9.48044 2.5 12C2.5 14.5196 3.50089 16.9359 5.28249 18.7175C5.74948 19.1845 6.26 19.5978 6.80453 19.9535L5.43734 22.0465C4.74941 21.5972 4.10449 21.0751 3.51472 20.4853C1.26428 18.2348 0 15.1826 0 12C0 8.8174 1.26428 5.76516 3.51472 3.51472ZM16.4036 23.1628C15.0146 23.7108 13.5222 24 12 24C10.4778 24 8.98538 23.7108 7.59633 23.1628L8.51377 20.8372C9.61351 21.2711 10.7949 21.5 12 21.5C13.2051 21.5 14.3865 21.2711 15.4862 20.8372L16.4036 23.1628ZM20.4853 20.4853C21.348 19.6226 22.0658 18.642 22.623 17.5814L20.4099 16.4186C19.9688 17.2582 19.4005 18.0345 18.7175 18.7175C18.2505 19.1845 17.74 19.5978 17.1955 19.9535L18.5627 22.0465C19.2506 21.5972 19.8955 21.0751 20.4853 20.4853ZM24 12C24 13.1434 23.8368 14.2702 23.5233 15.3489L21.1226 14.6511C21.3708 13.7972 21.5 12.9053 21.5 12H24Z" fill="#E6E2E8"/>
<path d="M9.99254 5.58197C10.0055 5.51631 10.0052 5.44871 9.99152 5.38319C9.97787 5.31766 9.95122 5.25555 9.91312 5.20052C9.87503 5.14549 9.82627 5.09867 9.76974 5.06283C9.71322 5.02699 9.65007 5.00286 9.58405 4.99188C9.51803 4.9809 9.45047 4.98329 9.38539 4.9989C9.32031 5.01451 9.25902 5.04303 9.20516 5.08276C9.15131 5.1225 9.10598 5.17264 9.07186 5.23022C9.03774 5.2878 9.01553 5.35165 9.00654 5.41797L7.00654 17.418C6.99358 17.4836 6.99393 17.5512 7.00757 17.6168C7.02121 17.6823 7.04787 17.7444 7.08596 17.7994C7.12406 17.8545 7.17281 17.9013 7.22934 17.9371C7.28587 17.9729 7.34901 17.9971 7.41503 18.0081C7.48106 18.019 7.54861 18.0167 7.61369 18.001C7.67878 17.9854 7.74006 17.9569 7.79392 17.9172C7.84778 17.8774 7.89311 17.8273 7.92723 17.7697C7.96134 17.7121 7.98356 17.6483 7.99254 17.582L8.66254 13.562C9.46854 13.68 10.3395 13.719 11.0255 14.2C11.45 14.505 11.9408 14.7048 12.4575 14.783C13.4235 14.929 14.2875 14.398 15.2415 14.549L16.5305 14.743C16.7905 14.783 17.0605 14.583 17.0995 14.323L17.9835 8.38897L17.9875 8.38497C18.0006 8.25443 17.9639 8.12377 17.8847 8.01917C17.8055 7.91458 17.6897 7.84378 17.5605 7.82097L16.2715 7.62697C15.3085 7.48397 14.4425 7.99997 13.4885 7.85697C13.0607 7.79199 12.6537 7.62872 12.2995 7.37997C11.5605 6.86297 10.6805 6.77697 9.81354 6.65497L9.99254 5.58197ZM9.40254 9.11997L9.73254 7.14797C10.3315 7.22997 10.9655 7.27697 11.5205 7.51697L11.2255 9.48197C10.6555 9.24897 10.0115 9.20397 9.40254 9.11997ZM8.74554 13.07L9.07554 11.096C9.69554 11.182 10.3525 11.226 10.9335 11.464L11.2335 9.48797C11.8915 9.75797 12.3925 10.221 13.1265 10.329L13.4265 8.34897C14.1645 8.45997 14.7755 8.17197 15.4845 8.11497L15.1845 10.081C14.4745 10.141 13.8605 10.441 13.1245 10.331L12.8385 12.309C12.1025 12.199 11.6005 11.734 10.9395 11.465L10.6395 13.441C10.0445 13.202 9.37654 13.16 8.74554 13.07ZM12.8395 12.31C13.5735 12.42 14.1905 12.118 14.9005 12.059L15.1845 10.081C15.8395 10.021 16.5095 10.192 17.1525 10.29L16.8725 12.266C16.2285 12.169 15.5565 11.997 14.9015 12.059L14.6015 14.035C13.8925 14.083 13.2665 14.395 12.5395 14.285L12.8395 12.31Z" fill="#E6E2E8"/>
</g>
<defs>
<clipPath id="clip0_383_1225">
<rect width="24" height="24" fill="white"/>
</clipPath>
</defs>
</svg>
